<?xml version="1.0" standalone="no"?><!DOCTYPE svg PUBLIC "-//W3C//DTD SVG 1.1//EN" "http://www.w3.org/Graphics/SVG/1.1/DTD/svg11.dtd"><svg t="1555844427149" class="icon" style="" viewBox="0 0 1024 1024" version="1.1" xmlns="http://www.w3.org/2000/svg" p-id="7891" xmlns:xlink="http://www.w3.org/1999/xlink" width="64" height="64"><defs><style type="text/css"></style></defs><path d="M651.85 0H148.31c-33.85 0-59.24 25.39-59.24 59.77v904.46c0 34.38 25.39 59.77 59.77 59.77H874c34.38 0 59.77-25.39 59.77-59.77V281.39z" fill="#FB8922" p-id="7892"></path><path d="M652.78 221.62c0 34.38 25.39 59.77 59.77 59.77h221.62L652.78 0z" fill="#FAAE6F" p-id="7893"></path><path d="M142.79 798.27V583.52h81q21.39 0 32.66 2.05 15.82 2.64 26.52 10t17.21 20.72a65.9 65.9 0 0 1 6.52 29.3q0 27.39-17.43 46.36t-63 19h-55.06v87.31z m28.42-112.65h55.52q27.54 0 39.11-10.25t11.57-28.86q0-13.47-6.81-23.07a31.81 31.81 0 0 0-17.94-12.67q-7.18-1.9-26.52-1.91h-54.93zM342.89 798.27V583.52h81q21.38 0 32.66 2.05 15.82 2.64 26.52 10t17.21 20.72a65.9 65.9 0 0 1 6.52 29.3q0 27.39-17.44 46.36t-63 19h-55.05v87.31z m28.42-112.65h55.52q27.53 0 39.11-10.25t11.57-28.86q0-13.47-6.81-23.07a31.83 31.83 0 0 0-17.95-12.67q-7.17-1.9-26.51-1.91h-54.93zM597.63 798.27V608.86h-70.76v-25.34h170.22v25.34H626v189.41zM704.41 798.27l83.06-111.92-73.24-102.83h33.84l39 55.08q12.13 17.13 17.25 26.4a277.24 277.24 0 0 1 17-24.47l43.21-57h30.91L820 684.74l81.3 113.53h-35.17l-54-76.61q-4.55-6.6-9.38-14.36-7.17 11.72-10.25 16.11l-53.91 74.86z" fill="#FFFFFF" p-id="7894"></path></svg>