<?xml version="1.0" standalone="no"?><!DOCTYPE svg PUBLIC "-//W3C//DTD SVG 1.1//EN" "http://www.w3.org/Graphics/SVG/1.1/DTD/svg11.dtd"><svg t="1555844416075" class="icon" style="" viewBox="0 0 1024 1024" version="1.1" xmlns="http://www.w3.org/2000/svg" p-id="7061" xmlns:xlink="http://www.w3.org/1999/xlink" width="64" height="64"><defs><style type="text/css"></style></defs><path d="M651.85 0H148.31c-33.85 0-59.24 25.39-59.24 59.77v904.46c0 34.38 25.39 59.77 59.77 59.77H874c34.38 0 59.77-25.39 59.77-59.77V281.39z" fill="#2EA355" p-id="7062"></path><path d="M652.78 221.62c0 34.38 25.39 59.77 59.77 59.77h221.62L652.78 0z" fill="#3ACC78" p-id="7063"></path><path d="M214.17 798.27l87.48-117.89-77.14-108.31h35.64l41 58q12.85 18.07 18.25 27.79a293.58 293.58 0 0 1 17.9-25.77l45.51-60h32.56l-79.46 106.6 85.63 119.58h-37l-56.93-80.7q-4.79-6.95-9.88-15.12-7.56 12.34-10.8 17l-56.78 78.85zM446.69 798.27v-226.2h29.94v199.5H588v26.7zM613.49 725.59l28.23-2.47q2 17 9.34 27.85t22.76 17.59q15.42 6.72 34.71 6.72 17.13 0 30.25-5.1t19.52-14a32.43 32.43 0 0 0 6.4-19.36 29.48 29.48 0 0 0-6.17-18.6q-6.18-7.93-20.37-13.34-9.1-3.55-40.27-11t-43.67-14.11q-16.2-8.49-24.15-21.06a51.69 51.69 0 0 1-7.94-28.16 57.51 57.51 0 0 1 9.72-32q9.72-14.89 28.39-22.61t41.51-7.71q25.14 0 44.36 8.1t29.54 23.84a68.43 68.43 0 0 1 11.11 35.64l-28.7 2.19q-2.31-21.44-15.66-32.4t-39.42-11q-27.16 0-39.58 10t-12.42 24a25.71 25.71 0 0 0 8.8 20.06q8.64 7.86 45.13 16.12T755 679.15q19.74 9.11 29.16 23.07t9.41 32.17a61.56 61.56 0 0 1-10.34 34q-10.34 16-29.7 24.84t-43.59 8.87q-30.7 0-51.45-9a72 72 0 0 1-32.56-26.92 76.32 76.32 0 0 1-12.44-40.59z" fill="#FFFFFF" p-id="7064"></path></svg>