<?xml version="1.0" standalone="no"?><!DOCTYPE svg PUBLIC "-//W3C//DTD SVG 1.1//EN" "http://www.w3.org/Graphics/SVG/1.1/DTD/svg11.dtd"><svg t="1555844403799" class="icon" style="" viewBox="0 0 1024 1024" version="1.1" xmlns="http://www.w3.org/2000/svg" p-id="6246" xmlns:xlink="http://www.w3.org/1999/xlink" width="64" height="64"><defs><style type="text/css"></style></defs><path d="M651.85 0H148.31c-33.85 0-59.24 25.39-59.24 59.77v904.46c0 34.38 25.39 59.77 59.77 59.77H874c34.38 0 59.77-25.39 59.77-59.77V281.39z" fill="#2EA355" p-id="6247"></path><path d="M652.78 221.62c0 34.38 25.39 59.77 59.77 59.77h221.62L652.78 0z" fill="#3ACC78" p-id="6248"></path><path d="M129.17 798.27l83.06-111.92L139 583.52h33.84l39 55.08q12.15 17.13 17.28 26.37a281.58 281.58 0 0 1 17-24.47l43.22-57h30.91l-75.5 101.24L326 798.27h-35.11l-54-76.61q-4.54-6.6-9.38-14.36-7.19 11.72-10.25 16.11l-53.96 74.86zM349.92 798.27V583.52h28.42v189.4H484.1v25.35zM508.27 729.27l26.81-2.34q1.9 16.11 8.86 26.44t21.61 16.7q14.64 6.38 33 6.37 16.26 0 28.71-4.83t18.53-13.26a30.75 30.75 0 0 0 6.04-18.35 28 28 0 0 0-5.83-17.69q-5.87-7.53-19.34-12.67-8.64-3.36-38.23-10.47t-41.46-13.4q-15.37-8.06-22.92-20a49 49 0 0 1-7.58-26.77 54.63 54.63 0 0 1 9.23-30.4q9.22-14.13 27-21.46t39.4-7.32q23.88 0 42.11 7.69t28.06 22.63a65 65 0 0 1 10.5 33.86l-27.24 2.05q-2.21-20.36-14.87-30.76t-37.43-10.4q-25.79 0-37.57 9.45t-11.79 22.77a24.41 24.41 0 0 0 8.35 19q8.19 7.47 42.84 15.3t47.54 13.7q18.75 8.64 27.68 21.9t8.94 30.54a58.36 58.36 0 0 1-9.82 32.3q-9.81 15.17-28.19 23.59t-41.39 8.42q-29.15 0-48.85-8.5a68.4 68.4 0 0 1-30.91-25.56 72.45 72.45 0 0 1-11.79-38.53zM696.21 798.27l83.06-111.92L706 583.52h33.84l39 55.08Q791 655.73 796.11 665a281.58 281.58 0 0 1 17-24.47l43.22-57h30.91l-75.45 101.21 81.3 113.53h-35.16l-54-76.61q-4.54-6.6-9.38-14.36-7.17 11.72-10.25 16.11l-53.91 74.86z" fill="#FFFFFF" p-id="6249"></path></svg>